<svg xmlns="http://www.w3.org/2000/svg" width="332" height="182" fill="none" viewBox="0 0 332 182">
  <path fill="#3B4906" d="M162.819 145.704V35.712C146.246 14.011 120.116 0 90.703 0 40.61 0 0 40.61 0 90.708c0 50.097 40.61 90.71 90.703 90.71 29.413 0 55.543-14.013 72.116-35.714zM55.846 77.031c4.205 4.502 2.728 4.168 5.13 5.17.94.391 2.429 2.036 4.818 3.68 2.389 1.645 3.015 2.664 10.234 4.686 1.866.523 6.136.954 7.78.64 1.646-.313 5.786-1.516 7.207-2.35 2.272-1.33 3.45-.428 5.091.393.783.392 5.17-.627 6.501-1.253 1.332-.627 7.715-4.661 9.008-6.11 1.292-1.45 7.597-6.383 8.499-7.363.9-.979 2.584-.234 1.37 1.175-1.214 1.41-3.446 2.976-4.465 3.916-1.019.94-10.154 9.599-12.062 10.496-.666.313-3.016 2.78-9.321 2.86-2.792.033-1.88-1.059-3.865-.054-1.22.617-6.109 2.82-9.751 3.054-3.642.236-6.462 1.228-14.503-2.022-3.681-1.488-5.209-2.546-10.848-6.423-3.015-2.072-3.484-2.779-6.227-6.344-2.35-3.055 1.527-8.302 5.404-4.151zm69.633-25.378c-1.472-1.472-4.857-6.54-5.248-9.085-.392-2.547-.861-7.559 1.488-11.867 1.755-3.218 5.861-.812 4.151 2.546-2.115 4.15-1.371 8.968-1.058 10.104.558 2.017 1.666 5.502 3.33 7.754 1.664 2.251 1.313 2.518 0 3.29-1.332.782-3.232 2.916-3.447 3.916-.235 1.096-.759 2.336-1.019.784-.313-1.88.768-4.048 1.92-5.171 1.527-1.488.9-1.253-.117-2.27zm-20.157 8.974a808 808 0 0014.4 2.226c1.605.236.978 1.802-.235 1.684-6.219-.601-13.042-1.292-15.438-1.658-3.78-.579-14.444-3.55-18.603-5.091-3.49-1.293-14.098-4.603-17.036-5.09-2.936-.491-6.168-1.763-10.378-2.743-4.21-.979-8.126-2.35-10.182-2.447-2.056-.099-10.567-.79-13.935.464-4.678 1.741-3.995 2.701-1.919 5.561 1.2 1.652 2.119 2.867 4.308 4.778 2.154 1.88 6.672 5.792 8.733 6.422 5.757 1.763 10.704 1.108 15.039.471 5.326-.784 5.483 5.56 1.305 6.565-4.11.988-8.726.778-13.524.483-4.798-.293-10.243-3.26-14.255-7.479-5.326-5.6-4.596-5.694-5.483-7.324-1.05-1.929-1.801-2.662-2.271-5.326-.692-3.919 2.428-6.971 4.62-7.832 3.085-1.212 8.695-3.212 21.384 0 14.273 3.612 14.099 3.936 18.015 5.012 3.916 1.077 15 4.465 17.231 5.561 1.975.97 15.286 5.273 18.224 5.763zm16.632-35.291c6.557 1.673 10.888 4.62 11.468 5.723.778 1.48-.58 1.405-1.47.685-1.734-1.404-6.473-4.685-16.813-4.764-2.853-.021-7.284 1.293-8.85 2.272-1.567.979-3.604-2.82-.627-3.525 3.979-.942 8.929-2.271 16.292-.391zm17.232-1.49c-.784.08.234.589-4.583.471-1.18-.029-2.623.431-3.799 1.019-1.316.657-5.325-.705-1.957-3.681 1.297-1.148 3.603-3.603 11.279-1.802 1.826.428 2.648 3.635-.94 3.994zm12.101 128.143c-.917 1.278-1.567 1.678-3.564 3.132-1.996 1.456-3.401 2.498-4.073 2.86-1.018.549-6.112 1.98-9.164-1.214-1.684-1.763-5.128-6.407-6.736-9.282-2.036-3.642-4.322-10.834-5.052-13.55-1.254-4.66-1.175-14.178-.94-16.998.234-2.818 1.429-12.63 4.308-17.349 2.82-4.62 5.725-7.526 7.089-8.458 2.232-1.527 1.527-.94-.588-2.585-2.115-1.645-4.7-4.779-6.148-6.815-.972-1.366-1.871-3.807-2.037-4.738-.196-1.097.822-1.92 1.488-.196.581 1.504 1.618 4.215 3.576 6.252 1.958 2.036 5.438 5.01 6.724 5.653 1.41.705.902 1.666-.548 2.624-2.076 1.37-3.368 3.25-4.856 5.052-1.488 1.802-3.486 4.426-4.896 8.812-1.186 3.69-1.802 9.164-1.606 14.137.12 3.053.979 10.497 1.45 12.298.469 1.801 2.428 7.245 3.76 9.085.816 1.129 1.77 1.627 2.624 3.095.978 1.684 4.174 5.68 5.169 6.736 2.507 2.663 3.289 2.39 4.777 1.136a91.355 91.355 0 015.17-3.995c.549-.392 3.016-.157 3.525.392 1.049 1.13 1.644 2.388.548 3.916M177.726 145.709c5.452 0 8.714-3.09 8.714-8.113v-.215c0-3.09-1.33-5.322-3.864-7.469l-3.862-3.263c-1.804-1.502-2.062-2.231-2.062-3.562V123c0-1.717 1.203-3.004 3.778-3.004h4.121c.945 0 1.46-.559 1.46-1.46v-1.417c0-.901-.387-1.459-1.373-1.631-1.632-.3-2.876-.344-4.466-.344-5.28 0-8.714 3.005-8.714 7.986v.171c0 3.091 1.374 5.194 3.906 7.341l3.864 3.219c1.803 1.503 2.06 2.232 2.06 3.692v.128c0 1.675-1.072 3.178-3.905 3.178h-4.251c-.944 0-1.416.559-1.416 1.46v1.416c0 .858.43 1.417 1.331 1.588 1.673.301 2.919.386 4.679.386"/>
  <path fill="#637A0C" d="M192.579 145.452c.6 0 .944-.344.944-.944v-27.904c0-.601-.344-.901-.944-.901h-.644c-.602 0-.945.3-.945.901v27.904c0 .6.343.944.945.944h.644M209.663 145.452c.559 0 .902-.3.902-.859v-.601c0-.557-.343-.859-.902-.859h-7.727c-.215 0-.257-.085-.257-.257v-26.272c0-.601-.344-.901-.988-.901h-.6c-.601 0-.945.3-.945.901v27.904c0 .6.343.944.987.944h9.53M210.866 116.519c0 .128 0 .257.042.472l5.882 27.388c.129.686.601 1.073 1.33 1.073h2.19c.729 0 1.202-.387 1.33-1.073l5.839-27.388c.043-.215.043-.344.043-.472 0-.559-.3-.816-.859-.816h-.729c-.602 0-.944.3-1.031.901l-5.409 26.315c-.086.258-.128.258-.258.258h-.042c-.13 0-.172 0-.258-.258l-5.452-26.315c-.086-.601-.386-.901-1.03-.901h-.73c-.558 0-.858.257-.858.816M242.804 145.452c.558 0 .859-.3.859-.859v-.601c0-.557-.301-.859-.859-.859h-8.887c-.214 0-.257-.085-.257-.257v-11.504c0-.172.043-.259.257-.259h7.427c.559 0 .816-.342.816-.858v-.6c0-.517-.257-.859-.816-.859h-7.427c-.214 0-.257-.087-.257-.258v-10.259c0-.172.043-.259.257-.259h8.887c.558 0 .859-.343.859-.901v-.558c0-.558-.301-.858-.859-.858h-10.689c-.644 0-.987.3-.987.901v27.904c0 .6.343.944.987.944h10.689M252.506 145.667c5.666 0 8.328-2.963 8.328-7.342v-.385c0-3.048-1.546-5.109-4.164-7.127l-3.606-2.833c-2.446-1.889-3.262-3.176-3.262-5.066v-.257c0-2.661 1.63-4.722 5.752-4.722h4.121c.515 0 .773-.3.773-.772v-.602c0-.472-.172-.816-.945-.901-1.073-.129-2.489-.172-4.077-.172-5.195 0-8.2 2.661-8.2 7.212v.3c0 3.091 1.674 5.023 4.25 7.04l3.606 2.791c2.446 1.889 3.22 3.22 3.22 5.194v.344c0 2.447-1.331 4.851-5.924 4.851h-4.336c-.515 0-.73.257-.73.772v.601c0 .43.171.73.772.816 1.116.172 2.662.258 4.422.258M270.965 145.452c.6 0 .944-.344.944-.944v-26.229c0-.172.043-.259.258-.259h5.065c.559 0 .859-.343.859-.901v-.558c0-.558-.3-.858-.859-.858h-13.179c-.558 0-.858.3-.858.858v.558c0 .558.3.901.858.901h5.066c.214 0 .257.087.257.259v26.229c0 .6.344.944.945.944h.644M295.735 143.649l-5.709-11.419c3.905-.687 5.537-3.262 5.537-6.654v-2.791c0-5.709-3.563-7.297-8.328-7.297-1.847 0-3.779.128-5.195.43-.601.127-.772.514-.772 1.073v27.473c0 .644.343.988.944.988h.602c.642 0 .986-.344.986-.988V132.96c0-.129.043-.172.13-.172h3.605c.087 0 .172.043.215.215l5.624 11.461c.214.601.557.988 1.158.988h.816c.43 0 .774-.3.774-.729 0-.172-.044-.387-.387-1.074zm-8.715-13.007h-2.962c-.172 0-.258-.129-.258-.258v-12.02c0-.215.086-.3.43-.344a28.037 28.037 0 013.305-.215c3.52 0 5.495 1.375 5.495 4.98v2.92c0 3.433-2.232 4.937-6.01 4.937zM312.047 145.452c.558 0 .859-.3.859-.859v-.601c0-.557-.301-.859-.859-.859h-8.887c-.214 0-.257-.085-.257-.257v-11.504c0-.172.043-.259.257-.259h7.427c.558 0 .816-.342.816-.858v-.6c0-.517-.258-.859-.816-.859h-7.427c-.214 0-.257-.087-.257-.258v-10.259c0-.172.043-.259.257-.259h8.887c.558 0 .859-.343.859-.901v-.558c0-.558-.301-.858-.859-.858h-10.689c-.644 0-.987.3-.987.901v27.904c0 .6.343.944.987.944h10.689M321.748 145.667c5.667 0 8.33-2.963 8.33-7.342v-.385c0-3.048-1.547-5.109-4.164-7.127l-3.607-2.833c-2.447-1.889-3.263-3.176-3.263-5.066v-.257c0-2.661 1.632-4.722 5.752-4.722h4.122c.516 0 .773-.3.773-.772v-.602c0-.472-.172-.816-.945-.901-1.072-.129-2.49-.172-4.078-.172-5.194 0-8.2 2.661-8.2 7.212v.3c0 3.091 1.675 5.023 4.251 7.04l3.605 2.791c2.447 1.889 3.22 3.22 3.22 5.194v.344c0 2.447-1.33 4.851-5.924 4.851h-4.336c-.514 0-.729.257-.729.772v.601c0 .43.171.73.772.816 1.116.172 2.661.258 4.421.258"/>
  <path fill="#3B4906" d="M188.458 104.072c0-.258-.043-.472-.086-.773l-4.378-25.542c-.258-1.417-1.159-2.104-2.619-2.104h-3.992c-1.503 0-2.361.687-2.619 2.104l-4.422 25.542c-.043.258-.086.515-.086.73 0 1.202.644 1.674 1.675 1.674h1.331c1.244 0 1.888-.429 2.146-1.889l1.072-6.095c.044-.3.087-.387.215-.387h5.367c.129 0 .172.129.214.387l1.031 6.095c.257 1.46.901 1.889 2.147 1.889h1.33c1.03 0 1.674-.472 1.674-1.631zm-6.696-10.99c0 .086-.044.129-.13.129h-4.508c-.085 0-.128-.043-.128-.129 0-.086.043-.3.086-.558l2.017-12.363c.044-.3.087-.387.215-.387h.129c.129 0 .172.086.215.387l2.017 12.363c.043.258.087.472.087.558"/>
  <path fill="#637A0C" d="M201.723 90.42v-.171c2.189-.644 4.121-2.619 4.121-6.096v-1.288c0-5.58-3.52-7.126-8.285-7.126-1.76 0-3.563.13-4.98.43-.601.128-.772.472-.772 1.073v27.13c0 .601.171.988.772 1.116 1.417.301 3.22.43 4.98.43 5.151 0 8.715-1.588 8.715-7.341v-1.76c0-3.82-2.062-5.795-4.551-6.396zm-3.607-1.115h-3.52c-.214 0-.257-.086-.257-.215V78.615c0-.214.085-.3.429-.343.988-.129 2.104-.172 3.091-.172 3.563 0 5.452 1.288 5.452 4.765v1.546c0 3.434-2.06 4.894-5.195 4.894zm5.582 7.298v1.974c0 3.649-1.975 4.98-5.839 4.98-1.029 0-2.189-.043-2.961-.172-.516-.043-.559-.129-.559-.343v-11.42c0-.171.043-.257.257-.257h3.564c3.219 0 5.538 1.503 5.538 5.238M223.144 105.703c.558 0 .859-.3.859-.858v-.601c0-.558-.301-.859-.859-.859h-8.886c-.215 0-.258-.086-.258-.258V91.623c0-.172.043-.258.258-.258h7.426c.559 0 .816-.343.816-.858v-.601c0-.516-.257-.86-.816-.86h-7.426c-.215 0-.258-.085-.258-.257V78.53c0-.171.043-.257.258-.257h8.886c.558 0 .859-.344.859-.902v-.558c0-.558-.301-.858-.859-.858h-10.689c-.644 0-.988.3-.988.901v27.904c0 .601.344.944.988.944h10.689zM227.737 105.918c4.035 0 6.526-2.018 6.526-7.384V76.898c0-.644-.344-.944-.946-.944h-.644c-.6 0-.944.3-.944.944v21.508c0 3.477-1.373 5.151-4.593 5.151h-.816c-.429 0-.729.257-.729.687v.601c0 .472.172.773.816.901.342.086.814.172 1.33.172M254.31 104.887c0-.128-.043-.3-.086-.515l-5.838-27.388c-.172-.73-.6-1.03-1.331-1.03h-2.103c-.773 0-1.202.3-1.374 1.03l-5.838 27.388c-.044.215-.086.387-.086.515 0 .559.301.816.858.816h.644c.644 0 .944-.257 1.074-.944l1.802-8.328c.043-.215.087-.258.215-.258h7.469c.13 0 .172.086.215.258l1.76 8.328c.129.687.429.944 1.073.944h.688c.515 0 .858-.257.858-.816zm-4.764-10.99c0 .087-.044.13-.13.13h-6.868c-.086 0-.129-.043-.129-.13 0-.085.043-.257.085-.472l3.263-15.067c.044-.215.087-.3.172-.3h.087c.128 0 .17.085.214.3l3.219 15.067c.043.216.087.387.087.473M262.467 105.918c5.667 0 8.328-2.962 8.328-7.341v-.386c0-3.048-1.545-5.109-4.164-7.127l-3.607-2.833c-2.446-1.888-3.262-3.176-3.262-5.066v-.257c0-2.661 1.632-4.722 5.753-4.722h4.121c.515 0 .772-.3.772-.773v-.6c0-.473-.172-.816-.944-.902-1.073-.129-2.49-.172-4.078-.172-5.195 0-8.199 2.662-8.199 7.212v.3c0 3.092 1.673 5.023 4.249 7.041l3.606 2.79c2.448 1.89 3.22 3.22 3.22 5.194v.344c0 2.447-1.331 4.851-5.924 4.851h-4.336c-.515 0-.73.258-.73.773v.601c0 .429.172.729.772.815 1.118.172 2.663.258 4.423.258"/>
  <path fill="#3B4906" d="M188.458 64.323c0-.258-.043-.472-.086-.772l-4.378-25.543c-.258-1.416-1.159-2.104-2.619-2.104h-3.992c-1.503 0-2.361.688-2.619 2.104l-4.422 25.543c-.043.257-.086.514-.086.729 0 1.203.644 1.675 1.675 1.675h1.331c1.244 0 1.888-.43 2.146-1.89l1.072-6.096c.044-.3.087-.386.215-.386h5.367c.129 0 .172.129.214.386l1.031 6.096c.257 1.46.901 1.89 2.147 1.89h1.33c1.03 0 1.674-.472 1.674-1.632zm-6.696-10.99c0 .086-.044.13-.13.13h-4.508c-.085 0-.128-.044-.128-.13 0-.085.043-.3.086-.557l2.017-12.364c.044-.301.087-.387.215-.387h.129c.129 0 .172.086.215.387l2.017 12.364c.043.257.087.472.087.557"/>
  <path fill="#637A0C" d="M196.443 66.17c5.667 0 8.328-2.963 8.328-7.342v-.385c0-3.048-1.545-5.11-4.164-7.127L197 48.483c-2.447-1.89-3.263-3.176-3.263-5.066v-.258c0-2.662 1.633-4.722 5.754-4.722h4.121c.515 0 .772-.3.772-.773v-.6c0-.472-.172-.816-.944-.901-1.073-.13-2.49-.172-4.078-.172-5.195 0-8.199 2.661-8.199 7.212v.3c0 3.09 1.673 5.022 4.249 7.04l3.605 2.79c2.448 1.89 3.22 3.22 3.22 5.195v.343c0 2.448-1.33 4.852-5.923 4.852h-4.336c-.515 0-.73.257-.73.772v.601c0 .43.172.73.772.816 1.117.17 2.663.257 4.423.257M224.303 58.056V44.019c0-6.44-3.735-8.072-7.469-8.028-3.822 0-7.514 1.588-7.514 8.07V58.1c0 6.481 3.692 8.07 7.514 8.07 3.734 0 7.469-1.632 7.469-8.113zm-2.533.257c0 4.464-2.36 5.495-4.936 5.495-2.662 0-4.98-.987-4.98-5.495V43.847c0-4.508 2.318-5.495 4.98-5.495 2.576 0 4.936.987 4.936 5.452v14.51zM236.924 66.17c.944 0 2.06-.043 3.52-.215.558-.13.73-.387.73-.859v-.601c0-.515-.258-.772-.73-.772h-3.048c-3.606 0-5.838-1.418-5.838-6.311V44.748c0-4.937 2.232-6.31 5.838-6.31h3.048c.472 0 .73-.3.73-.774v-.643c0-.429-.172-.73-.73-.858-1.46-.172-2.576-.172-3.52-.172-4.25 0-7.898 1.673-7.898 8.37v13.394c0 6.74 3.648 8.414 7.898 8.414M246.883 65.955c.601 0 .944-.344.944-.944V37.107c0-.602-.343-.902-.944-.902h-.644c-.601 0-.944.3-.944.902V65.01c0 .6.343.944.944.944h.644zM268.432 65.139c0-.128-.042-.3-.085-.515l-5.839-27.39c-.17-.729-.6-1.029-1.33-1.029h-2.103c-.773 0-1.203.3-1.375 1.03l-5.837 27.389c-.044.215-.087.387-.087.515 0 .558.302.816.859.816h.644c.644 0 .944-.258 1.073-.944l1.803-8.33c.043-.214.087-.257.215-.257h7.469c.129 0 .172.087.215.257l1.76 8.33c.129.686.429.944 1.073.944h.687c.516 0 .858-.258.858-.816zm-4.764-10.99c0 .086-.044.128-.129.128h-6.868c-.087 0-.129-.042-.129-.128 0-.085.042-.257.085-.472l3.263-15.068c.044-.214.086-.301.172-.301h.085c.129 0 .172.087.215.301l3.22 15.068c.042.215.086.387.086.472zM279.251 66.17c.944 0 2.061-.043 3.52-.215.559-.13.731-.387.731-.859v-.601c0-.515-.259-.772-.731-.772h-3.048c-3.605 0-5.837-1.418-5.837-6.311V44.748c0-4.937 2.232-6.31 5.837-6.31h3.048c.472 0 .731-.3.731-.774v-.643c0-.429-.172-.73-.731-.858-1.459-.172-2.576-.172-3.52-.172-4.249 0-7.899 1.673-7.899 8.37v13.394c0 6.74 3.65 8.414 7.899 8.414M289.211 65.955c.6 0 .944-.344.944-.944V37.107c0-.602-.344-.902-.944-.902h-.644c-.601 0-.945.3-.945.902V65.01c0 .6.344.944.945.944h.644zM305.094 28.735c0-.3-.172-.515-.559-.515h-.687c-.514 0-.729.215-.901.687l-1.588 3.564c-.087.128-.087.3-.087.385 0 .257.172.387.516.387h.387c.385 0 .6-.086.772-.387l2.017-3.648a1.11 1.11 0 00.13-.473M310.288 58.056V44.019c0-6.44-3.734-8.072-7.47-8.028-3.82 0-7.512 1.588-7.512 8.07V58.1c0 6.481 3.692 8.07 7.512 8.07 3.736 0 7.47-1.632 7.47-8.113zm-2.533.257c0 4.464-2.361 5.495-4.937 5.495-2.662 0-4.979-.987-4.979-5.495V43.847c0-4.508 2.317-5.495 4.979-5.495 2.576 0 4.937.987 4.937 5.452v14.51zM316.941 65.955c.644 0 .988-.344.988-.944V39.425c0-.172.086-.216.215-.216h.085c.13 0 .215.044.258.216l8.585 25.671c.129.601.516.859 1.16.859h2.275c.644 0 .988-.387.988-.988v-27.86c0-.602-.344-.902-.902-.902h-.558c-.687 0-.987.3-.987.902v25.585c0 .172-.087.215-.215.215h-.129c-.085 0-.172-.043-.215-.215l-8.585-25.628c-.172-.601-.516-.859-1.16-.859h-2.275c-.686 0-.988.343-.988.944v27.862c0 .6.344.944.903.944h.557"/>
</svg>
