<?xml version="1.0" standalone="no"?>
<!DOCTYPE svg PUBLIC "-//W3C//DTD SVG 20010904//EN"
 "http://www.w3.org/TR/2001/REC-SVG-20010904/DTD/svg10.dtd">
<svg version="1.0" xmlns="http://www.w3.org/2000/svg"
 width="700.000000pt" height="700.000000pt" viewBox="0 0 700.000000 700.000000"
 preserveAspectRatio="xMidYMid meet">
<metadata>
Created by potrace 1.14, written by Peter Selinger 2001-2017
</metadata>
<g transform="translate(0.000000,700.000000) scale(0.100000,-0.100000)"
fill="#000000" stroke="none">
<path d="M3697 6394 c-1 -1 -47 -4 -102 -8 -55 -3 -109 -8 -120 -10 -11 -2
-47 -7 -80 -11 -139 -16 -347 -66 -521 -125 -994 -342 -1725 -1196 -1908
-2230 -39 -222 -51 -491 -34 -735 24 -332 125 -706 274 -1012 344 -707 944
-1239 1677 -1487 101 -34 311 -90 386 -102 18 -3 43 -8 55 -10 11 -2 44 -7 71
-10 28 -3 53 -8 56 -9 12 -8 220 -19 349 -19 127 0 323 10 373 20 12 2 40 6
62 9 209 25 539 122 755 222 41 20 93 44 115 54 208 95 506 308 710 506 94 91
212 222 262 290 l28 39 -2 1745 c0 959 -2 1746 -2 1749 -2 11 -133 165 -195
230 -96 101 -207 203 -293 270 -43 34 -85 67 -95 75 -37 30 -198 135 -207 135
-5 0 -11 4 -13 9 -5 16 -286 157 -408 206 -206 83 -471 155 -665 180 -27 4
-61 9 -75 11 -72 11 -443 26 -453 18z m1630 -619 c85 -10 126 -60 90 -108 -17
-24 -109 -47 -188 -47 -39 0 -83 -7 -105 -16 -70 -30 -144 -11 -144 37 0 49
103 124 191 137 55 8 67 8 156 -3z m-597 -170 c14 -3 36 -8 50 -11 172 -33
431 -177 390 -218 -8 -8 -18 -6 -38 6 -150 93 -258 131 -410 146 -154 16 -256
4 -380 -46 -59 -23 -64 -23 -81 -8 -45 41 -21 98 46 110 21 3 52 9 68 12 92
18 130 21 225 19 58 -2 116 -6 130 -10z m179 -154 c29 -16 37 -73 17 -115 -29
-62 -43 -139 -40 -226 4 -119 39 -216 133 -372 l23 -38 -28 -22 c-63 -51 -112
-108 -124 -142 -13 -42 -26 -46 -32 -12 -6 30 20 107 47 138 48 56 48 52 8 94
-47 50 -114 154 -144 224 -21 48 -24 71 -24 180 0 134 15 203 58 267 29 43 58
49 106 24z m-2559 -422 c30 -5 73 -11 95 -15 36 -5 169 -38 380 -94 39 -10
117 -33 175 -50 58 -18 112 -33 120 -35 63 -14 490 -150 535 -170 134 -59 545
-187 660 -205 69 -11 91 -14 150 -24 17 -3 80 -12 140 -21 147 -22 155 -24
155 -45 0 -21 -24 -31 -60 -26 -14 3 -56 7 -95 10 -38 4 -83 8 -100 10 -16 2
-61 7 -100 11 -98 9 -204 24 -245 35 -19 5 -46 11 -60 14 -82 16 -322 86 -455
133 -112 39 -455 143 -494 149 -20 3 -39 8 -42 10 -3 2 -21 6 -40 9 -19 3 -70
17 -114 30 -145 43 -476 126 -523 130 -69 7 -331 6 -372 -1 -44 -7 -129 -42
-153 -63 -13 -11 -17 -24 -13 -44 9 -44 107 -168 196 -246 93 -82 231 -187
257 -195 103 -32 261 -39 470 -21 l92 8 32 -34 c26 -28 30 -39 26 -70 -13
-100 -70 -121 -332 -124 -224 -3 -284 7 -402 65 -125 62 -253 172 -361 310
-35 45 -121 224 -127 265 -14 96 54 212 147 250 120 49 314 68 458 44z m2439
-998 c21 -14 4 -46 -47 -88 -59 -49 -120 -103 -202 -179 -36 -34 -83 -77 -104
-95 -22 -19 -54 -47 -70 -62 -134 -123 -315 -189 -449 -163 -41 8 -55 5 -107
-18 -96 -43 -197 -75 -264 -83 -106 -13 -256 -8 -321 11 -91 25 -233 85 -299
125 -32 20 -66 41 -75 46 -173 103 -341 270 -343 342 -4 96 70 150 150 109 28
-14 59 -46 125 -128 20 -26 55 -57 76 -70 22 -13 84 -57 139 -99 145 -111 308
-173 493 -186 75 -5 98 -2 180 22 52 15 117 38 146 51 62 29 76 29 128 5 46
-21 92 -19 185 7 76 21 265 140 357 224 32 29 99 87 148 128 50 41 99 83 109
92 22 20 26 21 45 9z m132 -71 c5 -8 23 -46 41 -85 24 -52 52 -90 108 -146 78
-78 148 -137 181 -153 10 -5 21 -18 25 -29 7 -21 5 -23 -74 -87 -39 -32 -160
-178 -190 -230 -38 -65 -51 -90 -70 -141 -73 -197 -84 -459 -32 -811 19 -126
102 -329 160 -390 17 -18 61 -75 98 -127 83 -117 168 -208 204 -216 22 -6 43
6 133 74 97 73 112 81 152 81 64 0 102 -45 93 -109 -4 -30 -38 -64 -142 -141
-116 -86 -173 -110 -254 -104 -89 5 -125 27 -198 117 -112 137 -177 249 -257
442 -14 35 -68 213 -78 257 -17 77 -25 190 -25 353 0 145 10 300 20 316 2 4 6
27 9 50 8 64 53 223 80 285 49 110 191 289 275 347 l25 17 -25 17 c-41 27
-184 175 -220 228 -39 57 -79 149 -80 183 0 26 27 28 41 2z"/>
</g>
</svg>
